# xmcd CD database file
#
# Track frame offsets:
#	150
#	20167
#	31027
#	44865
#	59630
#	73675
#	87175
#	100047
#	121525
#	136747
#	156025
#	170707
#	184620
#	197782
#	211165
#	233242
#	258845
#
# Disc length: 3593 seconds
#
# Revision: 1
# Processed by: cddbd v1.5.1PL2 Copyright (c) Steve Scherf et al.
# Submitted via: CDex 1.51
#
DISCID=e70e0711
DTITLE=BUD POWELL - the blue note years
DYEAR=1900
DGENRE=Jazz
TTITLE0=01-CREOPATRA'S DREAM
TTITLE1=02-ORNITHOLOGY
TTITLE2=03-BOUNCING WITH BUD
TTITLE3=04-YOU GO TO MY HEAD
TTITLE4=05-WAIL
TTITLE5=06-OVER THE RAIBOW
TTITLE6=07-52ND STREET THEME
TTITLE7=08-UN POCO LOCO
TTITLE8=09-REETS AND I
TTITLE9=10-A NIGHT IN TUNISIA
TTITLE10=11-IT COULD HAPPEN TO YOU
TTITLE11=12-COLLARD GREENS AND BLACK-EYE PEAS
TTITLE12=13-AUTUMN IN NEW YORK
TTITLE13=14-AUDREY
TTITLE14=15-FRANTIC FANCIES
TTITLE15=16-JHON'S ABBEY
TTITLE16=17-GLASS ENCLOSURE
EXTD=
EXTT0=
EXTT1=
EXTT2=
EXTT3=
EXTT4=
EXTT5=
EXTT6=
EXTT7=
EXTT8=
EXTT9=
EXTT10=
EXTT11=
EXTT12=
EXTT13=
EXTT14=
EXTT15=
EXTT16=
PLAYORDER=
